<svg width="30" height="30" viewBox="0 0 30 30" fill="none" xmlns="http://www.w3.org/2000/svg">
<g clip-path="url(#clip0_30_499)">
<path d="M22.4493 15.8581L22.4486 15.8578C21.9063 15.6332 21.8645 15.1317 21.8645 14.9832C21.8641 14.8347 21.9066 14.3331 22.4486 14.1086C22.7219 13.9953 22.9347 13.7826 23.0476 13.5096C23.1609 13.2366 23.1609 12.9356 23.0476 12.6623L22.3268 10.9216C22.093 10.3582 21.4449 10.0888 20.8802 10.323C20.3375 10.5479 19.9532 10.2225 19.8485 10.1178C19.7435 10.0128 19.4184 9.62815 19.6434 9.0858C19.7563 8.81281 19.7563 8.51184 19.643 8.23885C19.5297 7.96553 19.317 7.75281 19.044 7.63986L17.3034 6.91903C16.7399 6.68589 16.0909 6.95459 15.8571 7.51835C15.6325 8.06004 15.131 8.10219 14.9825 8.10219C14.834 8.10219 14.3325 8.06004 14.1079 7.51802C13.9949 7.2447 13.7822 7.03198 13.5089 6.9187C13.2359 6.80542 12.9349 6.80542 12.6616 6.9187L10.9216 7.63953C10.6483 7.75281 10.4356 7.9652 10.3223 8.23852C10.209 8.51184 10.209 8.81248 10.3223 9.0858C10.5469 9.62815 10.2218 10.0128 10.1171 10.1175C10.0124 10.2225 9.62812 10.5479 9.08543 10.323C8.81245 10.21 8.51147 10.21 8.23815 10.323C7.96484 10.4362 7.75211 10.649 7.63916 10.922L6.91833 12.6623C6.80505 12.9356 6.80505 13.2363 6.91833 13.5096C7.03161 13.7829 7.24434 13.9956 7.51732 14.1086C8.05935 14.3331 8.1015 14.835 8.1015 14.9832C8.1015 15.1314 8.05935 15.6332 7.51666 15.8578C6.95291 16.0916 6.6842 16.7406 6.918 17.3041L7.63883 19.0444C7.75211 19.3177 7.96484 19.5304 8.23783 19.6434C8.51081 19.7563 8.81146 19.7567 9.08511 19.6434C9.62713 19.4191 10.0117 19.7438 10.1168 19.8489C10.2215 19.9536 10.5465 20.3385 10.3219 20.8806C10.0885 21.4443 10.3569 22.093 10.9209 22.3272L12.6613 23.048C12.7979 23.1046 12.9415 23.1326 13.0851 23.1326C13.2286 23.1326 13.3722 23.1043 13.5086 23.0477C13.7819 22.9344 13.9946 22.7217 14.1075 22.4487C14.3325 21.9063 14.834 21.8642 14.9822 21.8642C15.1303 21.8642 15.6322 21.9063 15.8568 22.449C16.0906 23.0124 16.7396 23.2805 17.303 23.0477L19.044 22.3268C19.6075 22.093 19.8762 21.4443 19.6427 20.8806C19.4181 20.3382 19.7431 19.9536 19.8482 19.8489C19.9532 19.7438 20.3369 19.4185 20.8802 19.6437C21.4443 19.8765 22.0927 19.6082 22.3265 19.0444L23.0473 17.3041C23.2814 16.7403 23.0127 16.0916 22.4493 15.8581ZM14.9838 19.0994C12.7143 19.0994 10.8676 17.2527 10.8676 14.9832C10.8676 12.7133 12.7143 10.867 14.9838 10.867C17.2533 10.867 19.1 12.7133 19.1 14.9832C19.1 17.2527 17.2536 19.0994 14.9838 19.0994Z" fill="black"/>
<path d="M14.9838 0.165833C9.27776 0.165833 4.11143 3.46209 1.65355 8.51746L1.43655 7.96292C1.30417 7.62441 0.922186 7.45745 0.58334 7.59016C0.244493 7.72287 0.0775396 8.10485 0.210246 8.44337L1.019 10.5087C1.02196 10.516 1.02624 10.5219 1.02954 10.5291C1.03843 10.5499 1.04929 10.5696 1.06016 10.5894C1.07004 10.6068 1.07959 10.6243 1.09112 10.6411C1.10396 10.6595 1.11812 10.6767 1.13261 10.6938C1.14545 10.7089 1.15829 10.7244 1.17278 10.7382C1.18859 10.7537 1.20604 10.7679 1.22382 10.7817C1.23996 10.7945 1.25609 10.8074 1.27355 10.8189C1.29166 10.8308 1.31076 10.8406 1.32986 10.8505C1.34303 10.8574 1.35488 10.866 1.36838 10.8719C1.37563 10.8752 1.38353 10.8762 1.39078 10.8792C1.39835 10.8821 1.40494 10.8868 1.41251 10.8894C1.42733 10.8947 1.44248 10.8963 1.45729 10.9003C1.47804 10.9059 1.49846 10.9118 1.51986 10.9154C1.5439 10.9197 1.56794 10.9213 1.59198 10.923C1.60548 10.924 1.61898 10.9273 1.63248 10.9273C1.63907 10.9273 1.64532 10.9256 1.65191 10.9256C1.67199 10.9249 1.69175 10.9223 1.71184 10.92C1.73324 10.9174 1.75432 10.9147 1.77539 10.9101C1.79548 10.9055 1.81491 10.8996 1.83467 10.893C1.84718 10.8891 1.86035 10.8871 1.87287 10.8821L3.93822 10.0734C4.27706 9.94068 4.44402 9.5587 4.31131 9.22018C4.1786 8.88166 3.79596 8.71471 3.4581 8.84708L2.84133 9.08846C5.08088 4.48456 9.78686 1.48302 14.9838 1.48302C22.4279 1.48302 28.4843 7.53912 28.4843 14.9832C28.4843 15.3467 28.7794 15.6418 29.1429 15.6418C29.5065 15.6418 29.8015 15.3471 29.8015 14.9832C29.8015 6.81302 23.1543 0.165833 14.9838 0.165833Z" fill="black"/>
<path d="M29.7561 21.5227L28.9476 19.4577C28.9447 19.4504 28.9404 19.4445 28.9374 19.4376C28.9282 19.4162 28.9173 19.3961 28.9058 19.376C28.8956 19.3579 28.8854 19.3394 28.8739 19.3227C28.862 19.3055 28.8485 19.2901 28.835 19.2742C28.8209 19.2575 28.8067 19.2407 28.7909 19.2255C28.7764 19.2113 28.7603 19.1988 28.7441 19.186C28.7267 19.1722 28.7096 19.1583 28.6911 19.1461C28.6743 19.1353 28.6562 19.1261 28.6381 19.1168C28.6174 19.106 28.5969 19.0958 28.5755 19.0872C28.5683 19.0842 28.5617 19.08 28.5545 19.0773C28.5423 19.073 28.5301 19.0721 28.5179 19.0684C28.4958 19.0622 28.4741 19.0563 28.4514 19.0523C28.4306 19.0487 28.4099 19.0464 28.3888 19.0444C28.3674 19.0428 28.346 19.0414 28.324 19.0418C28.3022 19.0421 28.2808 19.0441 28.2594 19.0464C28.2387 19.0487 28.2179 19.0516 28.1972 19.0563C28.1748 19.0612 28.1531 19.0674 28.1313 19.0747C28.1191 19.0786 28.1066 19.0803 28.0944 19.0849L26.0291 19.8933C25.6902 20.0257 25.5233 20.408 25.6557 20.7465C25.7877 21.0854 26.17 21.2523 26.5089 21.12L27.126 20.8786C24.8858 25.4822 20.1798 28.4837 14.9825 28.4837C7.53841 28.4834 1.48198 22.4269 1.48198 14.9832C1.48198 14.6196 1.18693 14.3246 0.823389 14.3246C0.459845 14.3246 0.164795 14.6196 0.164795 14.9832C0.164795 23.1534 6.81198 29.8005 14.9822 29.8005C20.6882 29.8005 25.8546 26.5046 28.3124 21.4496L28.5294 22.0035C28.6312 22.2633 28.8795 22.422 29.1429 22.422C29.2226 22.422 29.3036 22.4072 29.383 22.3762C29.7215 22.2438 29.8884 21.8615 29.7561 21.5227Z" fill="black"/>
</g>
<defs>
<clipPath id="clip0_30_499">
<rect width="30" height="30" fill="white"/>
</clipPath>
</defs>
</svg>
