<svg width="33" height="32" viewBox="0 0 33 32" fill="none" xmlns="http://www.w3.org/2000/svg">
<path d="M12.375 22C11.4125 22 10.599 21.6778 9.93437 21.0334C9.26979 20.3889 8.9375 19.6 8.9375 18.6667C8.9375 17.7334 9.26979 16.9445 9.93437 16.3C10.599 15.6556 11.4125 15.3334 12.375 15.3334C13.3375 15.3334 14.151 15.6556 14.8156 16.3C15.4802 16.9445 15.8125 17.7334 15.8125 18.6667C15.8125 19.6 15.4802 20.3889 14.8156 21.0334C14.151 21.6778 13.3375 22 12.375 22ZM6.875 29.3334C6.11875 29.3334 5.47135 29.0722 4.93281 28.55C4.39427 28.0278 4.125 27.4 4.125 26.6667V8.00002C4.125 7.26669 4.39427 6.63891 4.93281 6.11669C5.47135 5.59446 6.11875 5.33335 6.875 5.33335H8.25V2.66669H11V5.33335H22V2.66669H24.75V5.33335H26.125C26.8813 5.33335 27.5286 5.59446 28.0672 6.11669C28.6057 6.63891 28.875 7.26669 28.875 8.00002V26.6667C28.875 27.4 28.6057 28.0278 28.0672 28.55C27.5286 29.0722 26.8813 29.3334 26.125 29.3334H6.875ZM6.875 26.6667H26.125V13.3334H6.875V26.6667Z" fill="#1D1B20"/>
</svg>
