<svg width="32" height="31" viewBox="0 0 32 31" fill="none" xmlns="http://www.w3.org/2000/svg">
<g opacity="0.31" clip-path="url(#clip0_590_1781)">
<path d="M17.0473 10.2119L13.4593 6.73604C13.022 6.31496 12.314 6.31496 11.8753 6.73604L3.41533 14.933C3.02467 15.3114 2.51267 15.5 2.00067 15.5C1.48867 15.5 0.976667 15.3114 0.586 14.933C-0.195333 14.176 -0.195333 12.9502 0.586 12.1933L9.04733 3.99642C11.042 2.0615 14.2927 2.0615 16.2873 3.99642L19.8753 7.47229C20.3127 7.89337 21.0207 7.89337 21.4593 7.47229L25.102 3.94346L23.01 1.91683C22.2793 1.209 22.7967 0 23.83 0H30.382C31.2767 0 32.0033 0.702667 32.0033 1.57067V7.91662C32.0033 8.91637 30.7553 9.41754 30.0247 8.711L27.9327 6.68438L24.29 10.2132C22.2953 12.1481 19.0447 12.1481 17.05 10.2132L17.0473 10.2119ZM5.334 20.0208V29.0625C5.334 30.132 4.438 31 3.334 31C2.23 31 1.334 30.132 1.334 29.0625V20.0208C1.334 18.9513 2.23 18.0833 3.334 18.0833C4.438 18.0833 5.334 18.9513 5.334 20.0208ZM12.0007 14.8542V29.0625C12.0007 30.132 11.1047 31 10.0007 31C8.89667 31 8.00067 30.132 8.00067 29.0625V14.8542C8.00067 13.7847 8.89667 12.9167 10.0007 12.9167C11.1047 12.9167 12.0007 13.7847 12.0007 14.8542ZM16.6673 31C15.5633 31 14.6673 30.132 14.6673 29.0625V16.1458C14.6673 15.0763 15.5633 14.2083 16.6673 14.2083C17.7713 14.2083 18.6673 15.0763 18.6673 16.1458V29.0625C18.6673 30.132 17.7713 31 16.6673 31ZM23.334 14.2083C24.438 14.2083 25.334 15.0763 25.334 16.1458V29.0625C25.334 30.132 24.438 31 23.334 31C22.23 31 21.334 30.132 21.334 29.0625V16.1458C21.334 15.0763 22.23 14.2083 23.334 14.2083ZM32.0007 13.5625V29.0625C32.0007 30.132 31.1047 31 30.0007 31C28.8967 31 28.0007 30.132 28.0007 29.0625V13.5625C28.0007 12.493 28.8967 11.625 30.0007 11.625C31.1047 11.625 32.0007 12.493 32.0007 13.5625Z" fill="#9D9D9D"/>
</g>
<defs>
<clipPath id="clip0_590_1781">
<rect width="32" height="31" fill="white"/>
</clipPath>
</defs>
</svg>
