<svg width="19" height="22" viewBox="0 0 19 22" fill="none" xmlns="http://www.w3.org/2000/svg">
<g clip-path="url(#clip0_31_550)">
<path d="M16.9505 3.66894L1.16512 3.60718C0.614868 3.60502 0.164918 4.1256 0.162405 4.76779L0.117641 16.209C0.115128 16.8511 0.56099 17.3755 1.11124 17.3776L16.8966 17.4394C17.4471 17.4415 17.897 16.9207 17.8995 16.2785L17.9443 4.83736C17.9468 4.19517 17.501 3.67109 16.9505 3.66894ZM1.16332 4.06819L16.9487 4.12995C17.2814 4.13125 17.5507 4.44787 17.5491 4.83582L17.5432 6.34632L0.551649 6.27984L0.557559 4.76933C0.559077 4.38139 0.830794 4.06689 1.16332 4.06819ZM16.8984 16.9784L1.11304 16.9166C0.780523 16.9153 0.511275 16.5987 0.512794 16.2105L0.549845 6.74085L17.5414 6.80733L17.5044 16.2772C17.5029 16.6652 17.2311 16.9797 16.8984 16.9784Z" fill="black"/>
<path d="M15.8116 11.4108L13.1404 11.4003C13.0311 11.3999 12.9424 11.5026 12.9419 11.63L12.9306 14.5181C12.9301 14.6455 13.018 14.7489 13.1273 14.7493L15.7985 14.7598C15.9077 14.7602 15.9965 14.6575 15.997 14.53L16.0083 11.642C16.0088 11.5148 15.9209 11.4112 15.8116 11.4108ZM15.6027 14.2982L13.3266 14.2893L13.3361 11.8621L15.6122 11.871L15.6027 14.2982Z" fill="black"/>
</g>
<defs>
<clipPath id="clip0_31_550">
<rect width="18" height="21" fill="white" transform="translate(0.0821533) rotate(0.224174)"/>
</clipPath>
</defs>
</svg>
