<svg width="59" height="29" viewBox="0 0 59 29" fill="none" xmlns="http://www.w3.org/2000/svg">
<mask id="path-1-inside-1_13_276" fill="white">
<path d="M0 17C0 23.6274 5.37258 29 12 29H36.8574C43.4847 28.9999 48.8574 23.6273 48.8574 17V14.1338L58.1719 11.7637L48.5518 9.31641C47.3326 3.98148 42.5618 0.000129646 36.8574 0H12C5.37258 0 2.09383e-07 5.37258 0 12V17Z"/>
</mask>
<path d="M0 17C0 23.6274 5.37258 29 12 29H36.8574C43.4847 28.9999 48.8574 23.6273 48.8574 17V14.1338L58.1719 11.7637L48.5518 9.31641C47.3326 3.98148 42.5618 0.000129646 36.8574 0H12C5.37258 0 2.09383e-07 5.37258 0 12V17Z" fill="#75CFC3"/>
<path d="M12 29L12 29.5H12L12 29ZM36.8574 29L36.8574 29.5H36.8574V29ZM48.8574 17L49.3574 17V17L48.8574 17ZM48.8574 14.1338H48.3574V13.7451L48.7341 13.6492L48.8574 14.1338ZM58.1719 11.7637L58.2951 11.2791L58.2952 12.2482L58.1719 11.7637ZM48.5518 9.31641L48.4285 9.80097L48.1324 9.72565L48.0643 9.4278L48.5518 9.31641ZM36.8574 0L36.8574 -0.5L36.8574 -0.5L36.8574 0ZM0 12L-0.5 12L-0.5 12L0 12ZM0 17H0.5C0.5 23.3513 5.64873 28.5 12 28.5L12 29L12 29.5C5.09644 29.5 -0.5 23.9036 -0.5 17H0ZM12 29V28.5H36.8574V29V29.5H12V29ZM36.8574 29L36.8574 28.5C43.2086 28.4999 48.3574 23.3512 48.3574 17L48.8574 17L49.3574 17C49.3574 23.9035 43.7608 29.4998 36.8574 29.5L36.8574 29ZM48.8574 17H48.3574V14.1338H48.8574H49.3574V17H48.8574ZM48.8574 14.1338L48.7341 13.6492L58.0486 11.2791L58.1719 11.7637L58.2952 12.2482L48.9807 14.6183L48.8574 14.1338ZM58.1719 11.7637L58.0486 12.2482L48.4285 9.80097L48.5518 9.31641L48.675 8.83184L58.2951 11.2791L58.1719 11.7637ZM48.5518 9.31641L48.0643 9.4278C46.8959 4.31498 42.3233 0.500124 36.8574 0.5L36.8574 0L36.8574 -0.5C42.8004 -0.499865 47.7693 3.64799 49.0392 9.20502L48.5518 9.31641ZM36.8574 0V0.5H12V0V-0.5H36.8574V0ZM12 0V0.5C5.64873 0.5 0.5 5.64873 0.5 12L0 12L-0.5 12C-0.5 5.09644 5.09644 -0.5 12 -0.5V0ZM0 12H0.5V17H0H-0.5V12H0Z" fill="black" fill-opacity="0.5" mask="url(#path-1-inside-1_13_276)"/>
</svg>
