<svg width="266" height="273" viewBox="0 0 266 273" fill="none" xmlns="http://www.w3.org/2000/svg">
<path d="M158.309 19.8171H34.798C16.8728 19.8171 2.34157 34.3466 2.34157 52.2697V238.206C2.34157 256.129 16.8728 270.659 34.798 270.659H158.309C176.234 270.659 190.765 256.129 190.765 238.206V52.2697C190.765 34.3466 176.234 19.8171 158.309 19.8171Z" fill="white" stroke="black" stroke-width="2" stroke-miterlimit="10"/>
<path d="M117.489 2.34129H75.3224C67.1618 2.34129 60.5464 8.95593 60.5464 17.1155V27.7353C60.5464 35.8949 67.1618 42.5096 75.3224 42.5096H117.489C125.65 42.5096 132.265 35.8949 132.265 27.7353V17.1155C132.265 8.95593 125.65 2.34129 117.489 2.34129Z" fill="white" stroke="black" stroke-width="2" stroke-linejoin="round"/>
<path d="M46.3743 115.286L157.174 115.738" stroke="black" stroke-width="2" stroke-miterlimit="10" stroke-linecap="round"/>
<path d="M46.3743 153.649H120.241" stroke="black" stroke-width="2" stroke-miterlimit="10" stroke-linecap="round"/>
<path d="M91.3308 187.12L47.9848 186.778" stroke="black" stroke-width="2" stroke-miterlimit="10" stroke-linecap="round"/>
<path d="M249.514 89.2772L161.207 189.719L143.859 172.874L232.166 72.4317L249.514 89.2772Z" fill="white" stroke="black" stroke-width="2" stroke-miterlimit="10"/>
<path d="M262.376 74.6484L249.625 89.1512L232.277 72.3055L245.027 57.8026C246.838 55.743 249.894 55.6161 251.854 57.5191L262.106 67.4733C264.066 69.3763 264.186 72.5887 262.376 74.6484Z" fill="white" stroke="black" stroke-width="2" stroke-miterlimit="10"/>
<path d="M139.466 202.875L157.114 193.084L140.903 177.343L132.849 196.994C131.168 201.097 135.589 205.026 139.466 202.875Z" fill="white" stroke="black" stroke-width="2" stroke-miterlimit="10"/>
</svg>
