<svg width="12" height="12" viewBox="0 0 12 12" fill="none" xmlns="http://www.w3.org/2000/svg">
<path d="M9.99996 6.75004V9.25002C9.99996 10.766 8.76597 12 7.24997 12H2.74999C1.234 12 0 10.766 0 9.25002V2.75007C0 1.23358 1.234 9.21296e-05 2.74999 9.21296e-05H6.74998C7.16397 9.21296e-05 7.49997 0.33559 7.49997 0.750086C7.49997 1.16458 7.16397 1.50008 6.74998 1.50008H2.74999C2.06049 1.50008 1.49999 2.06108 1.49999 2.75007V9.25002C1.49999 9.93952 2.06049 10.5 2.74999 10.5H7.24997C7.93947 10.5 8.49997 9.93952 8.49997 9.25002V6.75004C8.49997 6.33554 8.83597 6.00005 9.24997 6.00005C9.66397 6.00005 9.99996 6.33554 9.99996 6.75004ZM11.756 0.424589C11.3185 -0.110407 10.528 -0.139907 10.0515 0.33659L7.14747 3.24057C6.74098 3.64706 6.51298 4.19806 6.51298 4.77256V5.25005C6.51298 5.38805 6.62498 5.50005 6.76298 5.50005H7.24047C7.81497 5.50005 8.36647 5.27155 8.77247 4.86555L11.63 2.00808C12.055 1.58308 12.1365 0.890085 11.756 0.424589ZM4.25198 7.22954L3.62049 7.84403L3.50949 7.74153C3.20549 7.46003 2.73049 7.47803 2.44949 7.78203C2.16799 8.08553 2.18599 8.56053 2.48999 8.84202L2.85849 9.18252C3.06299 9.38752 3.33549 9.50052 3.62499 9.50052C3.91449 9.50052 4.18699 9.38752 4.37948 9.19452L5.28998 8.31303C5.58898 8.02703 5.59948 7.55203 5.31298 7.25304C5.02598 6.95354 4.55198 6.94354 4.25249 7.23004L4.25198 7.22954ZM5.31248 4.25256C5.02548 3.95306 4.55148 3.94306 4.25198 4.22956L3.62049 4.84405L3.50949 4.74156C3.20549 4.46006 2.73049 4.47806 2.44949 4.78206C2.16799 5.08555 2.18599 5.56055 2.48999 5.84205L2.85849 6.18254C3.06299 6.38754 3.33549 6.50054 3.62499 6.50054C3.91449 6.50054 4.18699 6.38754 4.37948 6.19454L5.28998 5.31305C5.58898 5.02705 5.59948 4.55206 5.31298 4.25306L5.31248 4.25256ZM6.74998 9.50052C7.16397 9.50052 7.49997 9.16502 7.49997 8.75052C7.49997 8.33603 7.16397 8.00053 6.74998 8.00053H6.70848C6.29398 8.00053 5.97948 8.33603 5.97948 8.75052C5.97948 9.16502 6.33598 9.50052 6.75048 9.50052H6.74998Z" fill="#202020"/>
</svg>
