<svg width="45" height="45" viewBox="0 0 45 45" fill="none" xmlns="http://www.w3.org/2000/svg">
<path d="M36.4199 0C40.7923 9.82667e-05 44.3367 3.54459 44.3369 7.91699V36.4199C44.3368 40.7924 40.7924 44.3368 36.4199 44.3369H7.91699C3.54459 44.3367 9.18428e-05 40.7923 0 36.4199V7.91699C0.000193098 3.54465 3.54465 0.000186668 7.91699 0H36.4199ZM29.1484 15.1924C27.8937 13.9376 25.8655 13.9377 24.6143 15.1924L22.168 17.6338L19.7266 15.1924C18.4718 13.9376 16.4436 13.9376 15.1924 15.1924C13.9377 16.4436 13.9377 18.4754 15.1924 19.7266L17.6338 22.168L15.1924 24.6104C13.9377 25.8616 13.9377 27.8933 15.1924 29.1445C15.8198 29.7719 16.6401 30.0859 17.46 30.0859C18.2797 30.0858 19.0993 29.7718 19.7266 29.1445L22.168 26.7031L24.6104 29.1445C25.2376 29.7718 26.0572 30.0858 26.877 30.0859C27.6968 30.0859 28.5172 29.7719 29.1445 29.1445C30.3992 27.8933 30.3992 25.8616 29.1445 24.6104L26.7031 22.168L29.1445 19.7266C30.3992 18.4754 30.3993 16.4436 29.1484 15.1924Z" fill="black"/>
</svg>
