<svg width="293" height="288" viewBox="0 0 293 288" fill="none" xmlns="http://www.w3.org/2000/svg">
<path d="M95.2989 65.1475L123.427 76.7716" stroke="black" stroke-width="3" stroke-miterlimit="10" stroke-linecap="round"/>
<path d="M67.6257 267.412L145.207 286.045" stroke="black" stroke-width="3" stroke-miterlimit="10" stroke-linecap="round"/>
<path d="M146.103 286.041L145.052 95.386" stroke="black" stroke-width="3" stroke-miterlimit="10" stroke-linecap="round"/>
<path d="M145.577 39.1213C151.28 39.1213 155.903 34.9585 155.903 29.8233C155.903 24.6882 151.28 20.5254 145.577 20.5254C139.874 20.5254 135.251 24.6882 135.251 29.8233C135.251 34.9585 139.874 39.1213 145.577 39.1213Z" stroke="black" stroke-width="3" stroke-miterlimit="10"/>
<path d="M145.742 86.9651L119.194 50.176" stroke="black" stroke-width="3" stroke-miterlimit="10" stroke-linecap="round"/>
<path d="M145.91 86.9651L172.457 50.176" stroke="black" stroke-width="3" stroke-miterlimit="10" stroke-linecap="round"/>
<path d="M119.194 50.1761C117.841 48.5525 108.141 36.4913 113.898 22.4358C117.625 13.3355 128.268 2.36415 144.168 1.89529C159.654 1.43872 170.869 11.2192 175.589 19.2167C184.655 34.5802 173.217 49.238 172.457 50.176" stroke="black" stroke-width="3" stroke-miterlimit="10"/>
<path d="M67.6257 267.412L95.0682 65.158" stroke="black" stroke-width="3" stroke-miterlimit="10" stroke-linecap="round"/>
<path d="M95.431 65.0505L54.7333 77.1262" stroke="black" stroke-width="3" stroke-miterlimit="10" stroke-linecap="round"/>
<path d="M54.7333 77.126L2.08777 283.6" stroke="black" stroke-width="3" stroke-miterlimit="10" stroke-linecap="round"/>
<path d="M2.32733 283.529L67.7201 267.781" stroke="black" stroke-width="3" stroke-miterlimit="10" stroke-linecap="round"/>
<path d="M195.856 65.2227L167.728 76.8468" stroke="black" stroke-width="3" stroke-miterlimit="10" stroke-linecap="round"/>
<path d="M223.529 267.487L145.948 286.12" stroke="black" stroke-width="3" stroke-miterlimit="10" stroke-linecap="round"/>
<path d="M223.529 267.487L196.146 65.6768" stroke="black" stroke-width="3" stroke-miterlimit="10" stroke-linecap="round"/>
<path d="M196.531 64.8997L236.421 77.2013" stroke="black" stroke-width="3" stroke-miterlimit="10" stroke-linecap="round"/>
<path d="M236.421 77.2012L289.067 283.675" stroke="black" stroke-width="3" stroke-miterlimit="10" stroke-linecap="round"/>
<path d="M288.827 283.604L223.434 267.856" stroke="black" stroke-width="3" stroke-miterlimit="10" stroke-linecap="round"/>
<path d="M2.32733 283.529L122.135 177.265C125.646 174.192 131.12 170.406 138.433 169.334C153.129 167.179 161.315 178.028 172.147 177.411C180.588 176.929 191.482 169.435 203.077 140.09" stroke="black" stroke-width="3" stroke-miterlimit="10" stroke-linecap="round"/>
</svg>
