<svg width="276" height="268" viewBox="0 0 276 268" fill="none" xmlns="http://www.w3.org/2000/svg">
<g clip-path="url(#clip0_140_1382)">
<path d="M104.814 199.92C160.157 199.92 205.021 156.172 205.021 102.206C205.021 48.2406 160.157 4.49268 104.814 4.49268C49.4713 4.49268 4.60721 48.2406 4.60721 102.206C4.60721 156.172 49.4713 199.92 104.814 199.92Z" fill="white" stroke="black" stroke-width="4" stroke-miterlimit="10"/>
<path d="M173.654 173.224L196.128 193.611" stroke="black" stroke-width="4" stroke-miterlimit="10"/>
<path d="M266.809 239.228L218.206 195.138C212.394 189.865 203.298 190.185 197.891 195.853C192.484 201.521 192.812 210.39 198.625 215.663L247.228 259.753C253.04 265.026 262.136 264.706 267.543 259.038C272.95 253.37 272.622 244.501 266.809 239.228Z" stroke="black" stroke-width="4" stroke-miterlimit="10"/>
<path d="M103.701 92.9651C120.255 92.9651 133.676 80.3939 133.676 64.8865C133.676 49.3791 120.255 36.8079 103.701 36.8079C87.1458 36.8079 73.7254 49.3791 73.7254 64.8865C73.7254 80.3939 87.1458 92.9651 103.701 92.9651Z" stroke="black" stroke-width="4" stroke-miterlimit="10"/>
<path d="M49.6364 150.547C49.6318 145.391 50.574 136.447 57.3876 129.397C66.5815 119.883 80.6438 119.839 100.511 119.779C121.579 119.714 140.718 119.655 150.879 131.823C156.277 138.288 157.135 145.802 157.138 150.547" fill="white"/>
<path d="M49.6364 150.547C49.6318 145.391 50.574 136.447 57.3876 129.397C66.5815 119.883 80.6438 119.839 100.511 119.779C121.579 119.714 140.718 119.655 150.879 131.823C156.277 138.288 157.135 145.802 157.138 150.547" stroke="black" stroke-width="4" stroke-miterlimit="10" stroke-linecap="round"/>
</g>
<defs>
<clipPath id="clip0_140_1382">
<rect width="276" height="268" fill="white"/>
</clipPath>
</defs>
</svg>
