<svg width="33" height="23" viewBox="0 0 33 23" fill="none" xmlns="http://www.w3.org/2000/svg">
<path d="M21.7969 19.2937C22.5532 19.3706 23.1436 20.0093 23.1436 20.7859C23.1436 21.5625 22.5532 22.2012 21.7969 22.2781L21.6436 22.2859H18.8838C18.0554 22.2859 17.3838 21.6143 17.3838 20.7859C17.3838 19.9575 18.0554 19.2859 18.8838 19.2859H21.6436L21.7969 19.2937ZM7.29302 0.292741C7.68351 -0.0975802 8.3166 -0.0975802 8.70708 0.292741L15.0713 6.657C15.4616 7.04749 15.4616 7.68059 15.0713 8.07106C14.6809 8.46152 14.0478 8.46138 13.6573 8.07106L9.00005 3.41383V21.7879H7.00005V3.41383L2.34282 8.07106C1.95231 8.46142 1.31924 8.46148 0.928762 8.07106C0.538438 7.68057 0.538432 7.04748 0.928762 6.657L7.29302 0.292741ZM25.7833 12.5808C26.5394 12.6578 27.1298 13.2966 27.1299 14.073C27.1299 14.8495 26.5394 15.4882 25.7833 15.5652L25.6299 15.573H18.8838C18.0554 15.573 17.3838 14.9014 17.3838 14.073C17.384 13.2447 18.0555 12.573 18.8838 12.573H25.6299L25.7833 12.5808ZM28.542 6.13747C29.2986 6.21409 29.8887 6.85286 29.8887 7.62965C29.8885 8.4063 29.2985 9.04525 28.542 9.12184L28.3887 9.12965H18.8838C18.0555 9.12965 17.384 8.45792 17.3838 7.62965C17.3838 6.80123 18.0554 6.12965 18.8838 6.12965H28.3887L28.542 6.13747ZM30.9952 0.23903C31.7516 0.315681 32.3417 0.954623 32.3418 1.73122C32.3418 2.50796 31.7517 3.14672 30.9952 3.2234L30.8418 3.23122H18.8838C18.0554 3.23122 17.3838 2.55964 17.3838 1.73122C17.384 0.902961 18.0555 0.231217 18.8838 0.231217H30.8418L30.9952 0.23903Z" fill="black"/>
</svg>
