<svg width="29" height="30" viewBox="0 0 29 30" fill="none" xmlns="http://www.w3.org/2000/svg">
<path d="M18.1244 1.875C18.1244 0.84 18.9644 0 19.9994 0H25.1394C26.2232 0 27.2219 0.58875 27.7482 1.53625C28.2732 2.485 28.2432 3.64375 27.6707 4.5625C27.6132 4.65375 22.8469 10.0013 22.8469 10.0013H26.2507C27.2857 10.0013 28.1257 10.8413 28.1257 11.8763C28.1257 12.9113 27.2857 13.7513 26.2507 13.7513H21.1107C20.0269 13.7513 19.0282 13.1625 18.5019 12.215C17.9769 11.2663 18.0069 10.1075 18.5794 9.18875C18.6369 9.0975 23.4032 3.75 23.4032 3.75H19.9994C18.9644 3.75 18.1244 2.91 18.1244 1.875ZM28.1244 21.25V28.125C28.1244 29.16 27.2844 30 26.2494 30C25.2144 30 24.3744 29.16 24.3744 28.125V26.25H21.8744V28.125C21.8744 29.16 21.0344 30 19.9994 30C18.9644 30 18.1244 29.16 18.1244 28.125V21.25C18.1244 18.4925 20.3669 16.25 23.1244 16.25C25.8819 16.25 28.1244 18.4925 28.1244 21.25ZM24.9994 23.125V21.25C24.9994 20.215 24.1594 19.375 23.1244 19.375C22.0894 19.375 21.2494 20.215 21.2494 21.25V23.125H24.9994ZM11.8057 21.7925L9.37441 24.1963V1.875C9.37441 0.84 8.53441 0 7.49941 0C6.46441 0 5.62441 0.84 5.62441 1.875V24.1963L3.19316 21.7925C2.45691 21.0638 1.26941 21.07 0.541907 21.8075C-0.186843 22.5438 -0.179343 23.7313 0.556907 24.4588L5.29066 29.1388C5.90066 29.7488 6.70191 30.0525 7.50316 30.0525C8.30441 30.0525 9.09816 29.75 9.70316 29.145L14.4444 24.4575C15.1807 23.73 15.1882 22.5425 14.4594 21.8063C13.7319 21.0688 12.5432 21.0625 11.8082 21.7913L11.8057 21.7925Z" fill="black"/>
</svg>
