<svg width="25" height="28" viewBox="0 0 25 28" fill="none" xmlns="http://www.w3.org/2000/svg">
<path d="M16.88 3.45C16.94 4.64 16.06 5.59 14.91 5.59H9.17003C7.99003 5.59 7.09003 4.58 7.18003 3.45C7.18003 3.33 7.20003 3.2 7.24003 3.08L7.57003 1.82C7.76003 1.1 8.33003 0.55 9.05003 0.38C10.05 0.14 11.05 0.01 12.04 0C13.04 0.01 14.03 0.14 15.03 0.38C15.75 0.55 16.32 1.1 16.51 1.82L16.81 2.94C16.85 3.12 16.88 3.28 16.88 3.45Z" fill="black"/>
<path d="M20.06 3.44995H18.68C18.733 4.44295 18.362 5.46195 17.634 6.22795C16.922 6.97695 15.954 7.38995 14.91 7.38995H9.17C8.113 7.38995 7.097 6.94595 6.381 6.16995C5.698 5.42995 5.343 4.44595 5.384 3.44995H4C1.79 3.44995 0 5.23995 0 7.44995V24C0 26.2099 1.79 28 4 28H20.06C22.27 28 24.06 26.2099 24.06 24V7.44995C24.06 5.23995 22.27 3.44995 20.06 3.44995ZM8.968 20.507C9.32 20.858 9.32 21.4279 8.968 21.7789C8.792 21.955 8.562 22.0429 8.332 22.0429C8.102 22.0429 7.872 21.955 7.696 21.7789L7.011 21.094L6.326 21.7789C6.15 21.955 5.92 22.0429 5.69 22.0429C5.46 22.0429 5.23 21.955 5.054 21.7789C4.702 21.4279 4.702 20.858 5.054 20.507L5.739 19.822L5.054 19.137C4.702 18.786 4.702 18.216 5.054 17.865C5.406 17.513 5.975 17.513 6.326 17.865L7.011 18.55L7.696 17.865C8.048 17.513 8.617 17.513 8.968 17.865C9.32 18.216 9.32 18.786 8.968 19.137L8.283 19.822L8.968 20.507ZM9.755 13.081L7.166 15.67C6.998 15.839 6.714 15.956 6.476 15.956C6.237 15.956 5.954 15.839 5.786 15.67L4.266 14.15C3.914 13.799 3.914 13.229 4.266 12.878C4.618 12.526 5.187 12.526 5.538 12.878L6.476 13.816L8.482 11.81C8.834 11.458 9.403 11.458 9.754 11.81C10.106 12.159 10.106 12.729 9.755 13.081ZM15.607 22.144H12.52C12.023 22.144 11.62 21.7409 11.62 21.2439C11.62 20.747 12.023 20.344 12.52 20.344H15.606C16.103 20.344 16.506 20.747 16.506 21.2439C16.506 21.7409 16.104 22.144 15.607 22.144ZM19.158 19.3H12.52C12.023 19.3 11.62 18.897 11.62 18.4C11.62 17.903 12.023 17.5 12.52 17.5H19.158C19.655 17.5 20.058 17.903 20.058 18.4C20.058 18.897 19.655 19.3 19.158 19.3ZM11.62 15.188C11.62 14.691 12.023 14.288 12.52 14.288H15.606C16.103 14.288 16.506 14.691 16.506 15.188C16.506 15.685 16.103 16.088 15.606 16.088H12.52C12.023 16.088 11.62 15.685 11.62 15.188ZM19.158 13.244H12.52C12.023 13.244 11.62 12.841 11.62 12.344C11.62 11.847 12.023 11.444 12.52 11.444H19.158C19.655 11.444 20.058 11.847 20.058 12.344C20.058 12.841 19.655 13.244 19.158 13.244Z" fill="black"/>
</svg>
