<svg width="25" height="31" viewBox="0 0 25 31" fill="none" xmlns="http://www.w3.org/2000/svg">
<g clip-path="url(#clip0_161_1346)">
<path d="M24.1413 30.8754H0.763094C0.414616 30.8754 0.132119 30.5916 0.132119 30.2416V0.83112C0.131829 0.776016 0.138646 0.685896 0.181717 0.584387C0.188349 0.568736 0.232979 0.465881 0.316927 0.382914C0.316927 0.382914 0.469446 0.232183 0.763094 0.197267C1.60958 0.0966054 20.9091 0.130026 22.2205 0.129702C22.4238 0.129653 22.5877 0.128656 22.6211 0.128431C23.0071 0.561234 23.401 0.996654 23.8028 1.43429C24.1591 1.82231 24.5142 2.20392 24.8677 2.57913C24.8359 11.7999 24.804 21.0207 24.7722 30.2415C24.7722 30.5916 24.4898 30.8754 24.1413 30.8754Z" fill="white" stroke="black" stroke-miterlimit="10"/>
<path d="M22.4086 0.180542C22.2773 0.392482 21.4102 1.82801 22.0249 2.56427C22.0925 2.64515 22.1576 2.6933 22.2023 2.7259C23.0039 3.31055 24.4292 2.81741 24.8172 2.67244" fill="white"/>
<path d="M22.4086 0.180542C22.2773 0.392482 21.4102 1.82801 22.0249 2.56427C22.0925 2.64515 22.1576 2.6933 22.2023 2.7259C23.0039 3.31055 24.4292 2.81741 24.8172 2.67244" stroke="black" stroke-miterlimit="10"/>
<path d="M22.4485 0.090332L24.8676 2.61146" stroke="black" stroke-miterlimit="10"/>
<path d="M7.62771 5.42273H2.94917C2.67309 5.42273 2.44928 5.63382 2.44928 5.89421V9.93573C2.44928 10.1961 2.67309 10.4072 2.94917 10.4072H7.62771C7.90379 10.4072 8.1276 10.1961 8.1276 9.93573V5.89421C8.1276 5.63382 7.90379 5.42273 7.62771 5.42273Z" fill="white" stroke="black" stroke-linejoin="round"/>
<path d="M7.62771 13.0233H2.94917C2.67309 13.0233 2.44928 13.2344 2.44928 13.4948V17.5363C2.44928 17.7967 2.67309 18.0078 2.94917 18.0078H7.62771C7.90379 18.0078 8.1276 17.7967 8.1276 17.5363V13.4948C8.1276 13.2344 7.90379 13.0233 7.62771 13.0233Z" fill="white" stroke="black" stroke-linejoin="round"/>
<path d="M7.62771 20.6239H2.94917C2.67309 20.6239 2.44928 20.835 2.44928 21.0954V25.1369C2.44928 25.3973 2.67309 25.6084 2.94917 25.6084H7.62771C7.90379 25.6084 8.1276 25.3973 8.1276 25.1369V21.0954C8.1276 20.835 7.90379 20.6239 7.62771 20.6239Z" fill="white" stroke="black" stroke-linejoin="round"/>
<path d="M10.2062 5.72908L23.007 5.67371" stroke="black" stroke-miterlimit="10" stroke-linecap="round"/>
<path d="M10.3823 7.88902L18.7792 7.83362" stroke="black" stroke-miterlimit="10" stroke-linecap="round"/>
<path d="M10.0888 13.9812L22.8897 13.9258" stroke="black" stroke-miterlimit="10" stroke-linecap="round"/>
<path d="M10.265 16.1411L18.6619 16.0857" stroke="black" stroke-miterlimit="10" stroke-linecap="round"/>
<path d="M10.1342 22.2331L22.9351 22.1777" stroke="black" stroke-miterlimit="10" stroke-linecap="round"/>
<path d="M10.3104 24.3931L18.7072 24.3378" stroke="black" stroke-miterlimit="10" stroke-linecap="round"/>
<path d="M3.68231 6.98621L5.32646 8.86925" stroke="black" stroke-miterlimit="10" stroke-linecap="round"/>
<path d="M5.40483 8.75438L9.48583 3.02222" stroke="black" stroke-miterlimit="10" stroke-linecap="round"/>
<path d="M3.85243 14.788L5.49658 16.671" stroke="black" stroke-miterlimit="10" stroke-linecap="round"/>
<path d="M5.57495 16.5561L9.65595 10.824" stroke="black" stroke-miterlimit="10" stroke-linecap="round"/>
</g>
<defs>
<clipPath id="clip0_161_1346">
<rect width="25" height="31" fill="white"/>
</clipPath>
</defs>
</svg>
