<svg width="40" height="40" viewBox="0 0 40 40" fill="none" xmlns="http://www.w3.org/2000/svg">
<path d="M18.3333 28.3334H21.6667V21.6667H28.3333V18.3334H21.6667V11.6667H18.3333V18.3334H11.6667V21.6667H18.3333V28.3334ZM20 36.6667C17.6945 36.6667 15.5278 36.2362 13.5 35.375C11.4722 34.4862 9.70834 33.2917 8.20834 31.7917C6.70834 30.2917 5.5139 28.5278 4.62501 26.5C3.7639 24.4723 3.33334 22.3056 3.33334 20C3.33334 17.6945 3.7639 15.5278 4.62501 13.5C5.5139 11.4723 6.70834 9.70837 8.20834 8.20837C9.70834 6.70837 11.4722 5.52782 13.5 4.66671C15.5278 3.77782 17.6945 3.33337 20 3.33337C22.3056 3.33337 24.4722 3.77782 26.5 4.66671C28.5278 5.52782 30.2917 6.70837 31.7917 8.20837C33.2917 9.70837 34.4722 11.4723 35.3333 13.5C36.2222 15.5278 36.6667 17.6945 36.6667 20C36.6667 22.3056 36.2222 24.4723 35.3333 26.5C34.4722 28.5278 33.2917 30.2917 31.7917 31.7917C30.2917 33.2917 28.5278 34.4862 26.5 35.375C24.4722 36.2362 22.3056 36.6667 20 36.6667ZM20 33.3334C23.7222 33.3334 26.875 32.0417 29.4583 29.4584C32.0417 26.875 33.3333 23.7223 33.3333 20C33.3333 16.2778 32.0417 13.125 29.4583 10.5417C26.875 7.95837 23.7222 6.66671 20 6.66671C16.2778 6.66671 13.125 7.95837 10.5417 10.5417C7.95834 13.125 6.66668 16.2778 6.66668 20C6.66668 23.7223 7.95834 26.875 10.5417 29.4584C13.125 32.0417 16.2778 33.3334 20 33.3334Z" fill="#007AFF"/>
</svg>
