<svg width="100" height="21" viewBox="0 0 100 21" fill="none" xmlns="http://www.w3.org/2000/svg">
<mask id="path-1-inside-1_13_275" fill="white">
<path d="M84.583 0C88.7879 0 92.4084 2.49281 94.0537 6.08008L99.2793 9.63281L94.7412 12.7178C93.6934 17.3631 89.545 20.833 84.583 20.833H10.417C4.66413 20.833 0.000175753 16.1698 0 10.417C0 4.66403 4.66403 0 10.417 0H84.583Z"/>
</mask>
<path d="M84.583 0C88.7879 0 92.4084 2.49281 94.0537 6.08008L99.2793 9.63281L94.7412 12.7178C93.6934 17.3631 89.545 20.833 84.583 20.833H10.417C4.66413 20.833 0.000175753 16.1698 0 10.417C0 4.66403 4.66403 0 10.417 0H84.583Z" fill="#75CFC3"/>
<path d="M94.0537 6.08008L93.5992 6.28853L93.6573 6.41521L93.7726 6.49357L94.0537 6.08008ZM99.2793 9.63281L99.5604 10.0463L100.169 9.63284L99.5604 9.21932L99.2793 9.63281ZM94.7412 12.7178L94.4601 12.3043L94.2969 12.4152L94.2535 12.6078L94.7412 12.7178ZM0 10.417L-0.5 10.417L-0.5 10.417L0 10.417ZM84.583 0V0.5C88.5851 0.5 92.0323 2.8721 93.5992 6.28853L94.0537 6.08008L94.5082 5.87163C92.7845 2.11352 88.9908 -0.5 84.583 -0.5V0ZM94.0537 6.08008L93.7726 6.49357L98.9982 10.0463L99.2793 9.63281L99.5604 9.21932L94.3348 5.66659L94.0537 6.08008ZM99.2793 9.63281L98.9982 9.21931L94.4601 12.3043L94.7412 12.7178L95.0223 13.1313L99.5604 10.0463L99.2793 9.63281ZM94.7412 12.7178L94.2535 12.6078C93.2559 17.0303 89.3059 20.333 84.583 20.333V20.833V21.333C89.784 21.333 94.1308 17.696 95.229 12.8278L94.7412 12.7178ZM84.583 20.833V20.333H10.417V20.833V21.333H84.583V20.833ZM10.417 20.833V20.333C4.94023 20.333 0.500167 15.8936 0.5 10.417L0 10.417L-0.5 10.417C-0.499816 16.446 4.38804 21.333 10.417 21.333V20.833ZM0 10.417H0.5C0.5 4.94017 4.94017 0.5 10.417 0.5V0V-0.5C4.38788 -0.5 -0.5 4.38788 -0.5 10.417H0ZM10.417 0V0.5H84.583V0V-0.5H10.417V0Z" fill="black" fill-opacity="0.5" mask="url(#path-1-inside-1_13_275)"/>
</svg>
