<svg width="32" height="23" viewBox="0 0 32 23" fill="none" xmlns="http://www.w3.org/2000/svg">
<path d="M20.7967 19.2939C21.553 19.3708 22.1433 20.0095 22.1433 20.7861C22.1432 21.5626 21.5529 22.2015 20.7967 22.2783L20.6433 22.2861H17.8836C17.0552 22.2861 16.3837 21.6144 16.3836 20.7861C16.3836 19.9577 17.0552 19.2862 17.8836 19.2861H20.6433L20.7967 19.2939ZM8.36403 18.374L13.0213 13.7168C13.4118 13.3265 14.0449 13.3263 14.4353 13.7168C14.8253 14.1073 14.8255 14.7405 14.4353 15.1309L8.07107 21.4951C7.68068 21.8853 7.04751 21.8851 6.657 21.4951L0.292745 15.1309C-0.0975844 14.7404 -0.0975788 14.1073 0.292745 13.7168C0.683225 13.3264 1.31629 13.3264 1.70681 13.7168L6.36403 18.374V0H8.36403V18.374ZM24.783 12.5811C25.5392 12.658 26.1297 13.2967 26.1297 14.0732C26.1297 14.8498 25.5392 15.4885 24.783 15.5654L24.6297 15.5732H17.8836C17.0552 15.5732 16.3836 14.9017 16.3836 14.0732C16.3836 13.2448 17.0552 12.5733 17.8836 12.5732H24.6297L24.783 12.5811ZM27.5418 6.13672C28.2983 6.21331 28.8883 6.85226 28.8884 7.62891C28.8884 8.40572 28.2984 9.04449 27.5418 9.12109L27.3884 9.12891H17.8836C17.0552 9.12888 16.3836 8.45732 16.3836 7.62891C16.3838 6.80066 17.0553 6.12893 17.8836 6.12891H27.3884L27.5418 6.13672ZM29.9949 0.239258C30.7514 0.315918 31.3415 0.954738 31.3416 1.73145C31.3416 2.50821 30.7514 3.14697 29.9949 3.22363L29.8416 3.23145H17.8836C17.0552 3.23142 16.3836 2.55986 16.3836 1.73145C16.3836 0.90309 17.0552 0.23147 17.8836 0.231445H29.8416L29.9949 0.239258Z" fill="black"/>
</svg>
