<svg width="25" height="31" viewBox="0 0 25 31" fill="none" xmlns="http://www.w3.org/2000/svg">
<g clip-path="url(#clip0_161_1363)">
<path d="M24.1413 30.8753H0.763094C0.414616 30.8753 0.132119 30.5915 0.132119 30.2414V0.830997C0.131829 0.775894 0.138646 0.685774 0.181717 0.584265C0.188349 0.568614 0.232979 0.465759 0.316927 0.382792C0.316927 0.382792 0.469446 0.232061 0.763094 0.197145C1.60958 0.0964833 20.9091 0.129904 22.2205 0.12958C22.4238 0.12953 22.5877 0.128534 22.6211 0.128309C23.0071 0.561112 23.401 0.996532 23.8028 1.43417C24.1591 1.82219 24.5142 2.2038 24.8677 2.57901C24.8359 11.7998 24.804 21.0206 24.7722 30.2414C24.7722 30.5915 24.4898 30.8753 24.1413 30.8753Z" fill="white" stroke="#757575" stroke-miterlimit="10"/>
<path d="M22.4086 0.180664C22.2773 0.392604 21.4102 1.82814 22.0249 2.5644C22.0925 2.64527 22.1576 2.69342 22.2023 2.72602C23.0039 3.31067 24.4292 2.81753 24.8172 2.67256" fill="white"/>
<path d="M22.4086 0.180664C22.2773 0.392604 21.4102 1.82814 22.0249 2.5644C22.0925 2.64527 22.1576 2.69342 22.2023 2.72602C23.0039 3.31067 24.4292 2.81753 24.8172 2.67256" stroke="#757575" stroke-miterlimit="10"/>
<path d="M22.4485 0.090332L24.8676 2.61146" stroke="#757575" stroke-miterlimit="10"/>
<path d="M7.62771 5.42285H2.94917C2.67309 5.42285 2.44928 5.63394 2.44928 5.89433V9.93586C2.44928 10.1962 2.67309 10.4073 2.94917 10.4073H7.62771C7.90379 10.4073 8.1276 10.1962 8.1276 9.93586V5.89433C8.1276 5.63394 7.90379 5.42285 7.62771 5.42285Z" fill="white" stroke="#757575" stroke-linejoin="round"/>
<path d="M7.62771 13.0234H2.94917C2.67309 13.0234 2.44928 13.2345 2.44928 13.4949V17.5364C2.44928 17.7968 2.67309 18.0079 2.94917 18.0079H7.62771C7.90379 18.0079 8.1276 17.7968 8.1276 17.5364V13.4949C8.1276 13.2345 7.90379 13.0234 7.62771 13.0234Z" fill="white" stroke="#757575" stroke-linejoin="round"/>
<path d="M7.62771 20.6238H2.94917C2.67309 20.6238 2.44928 20.8349 2.44928 21.0953V25.1368C2.44928 25.3972 2.67309 25.6083 2.94917 25.6083H7.62771C7.90379 25.6083 8.1276 25.3972 8.1276 25.1368V21.0953C8.1276 20.8349 7.90379 20.6238 7.62771 20.6238Z" fill="white" stroke="#757575" stroke-linejoin="round"/>
<path d="M10.2062 5.72896L23.007 5.67358" stroke="#757575" stroke-miterlimit="10" stroke-linecap="round"/>
<path d="M10.3823 7.8889L18.7792 7.8335" stroke="#757575" stroke-miterlimit="10" stroke-linecap="round"/>
<path d="M10.0888 13.9812L22.8897 13.9258" stroke="#757575" stroke-miterlimit="10" stroke-linecap="round"/>
<path d="M10.265 16.1411L18.6619 16.0857" stroke="#757575" stroke-miterlimit="10" stroke-linecap="round"/>
<path d="M10.1342 22.2331L22.9351 22.1777" stroke="#757575" stroke-miterlimit="10" stroke-linecap="round"/>
<path d="M10.3104 24.393L18.7072 24.3376" stroke="#757575" stroke-miterlimit="10" stroke-linecap="round"/>
<path d="M3.68231 6.98633L5.32646 8.86937" stroke="#757575" stroke-miterlimit="10" stroke-linecap="round"/>
<path d="M5.40483 8.75438L9.48583 3.02222" stroke="#757575" stroke-miterlimit="10" stroke-linecap="round"/>
<path d="M3.85243 14.7881L5.49658 16.6711" stroke="#757575" stroke-miterlimit="10" stroke-linecap="round"/>
<path d="M5.57495 16.5561L9.65595 10.824" stroke="#757575" stroke-miterlimit="10" stroke-linecap="round"/>
</g>
<defs>
<clipPath id="clip0_161_1363">
<rect width="25" height="31" fill="white"/>
</clipPath>
</defs>
</svg>
