<svg width="32" height="34" viewBox="0 0 32 34" fill="none" xmlns="http://www.w3.org/2000/svg">
<path d="M28 14.3334C28 23.6667 16 31.6667 16 31.6667C16 31.6667 4 23.6667 4 14.3334C4 11.1508 5.26428 8.09853 7.51472 5.84809C9.76516 3.59766 12.8174 2.33337 16 2.33337C19.1826 2.33337 22.2348 3.59766 24.4853 5.84809C26.7357 8.09853 28 11.1508 28 14.3334Z" stroke="#757575" stroke-width="3" stroke-linecap="round" stroke-linejoin="round"/>
<path d="M16 18.3334C18.2091 18.3334 20 16.5425 20 14.3334C20 12.1242 18.2091 10.3334 16 10.3334C13.7909 10.3334 12 12.1242 12 14.3334C12 16.5425 13.7909 18.3334 16 18.3334Z" stroke="#757575" stroke-width="3" stroke-linecap="round" stroke-linejoin="round"/>
</svg>
